# xmcd
#
# Track frame offsets:
#	150
#	17895
#	36055
#	52750
#	71705
#	84995
#	103785
#	121975
#	143732
#	160872
#	184397
#	202882
#
# Disc length: 3132 seconds
#
# Revision: 0
# Processed by: cddbd v1.5.2PL0 Copyright (c) Steve Scherf et al.
# Submitted via: EasyCDDAExtractor 10.0.3.1
#
DISCID=9c0c3a0c
DTITLE=PATRYCJA KOSIARKIEWICZ - Kim Więc Jestem
DYEAR=1998
DGENRE=
TTITLE0=Nie JEstem Byle Co
TTITLE1=Rymokletka
TTITLE2=Co By Mi Nie Było
TTITLE3=Nic Ponad Miłość
TTITLE4=A nas To
TTITLE5=Tak To Właśnie W Życiu Jest
TTITLE6=Kim Więc Jestem
TTITLE7=Drinking With Mr Big Bang
TTITLE8=Córuś
TTITLE9=Transcendental High
TTITLE10=Manager Of The Earth Hotel
TTITLE11=Tat Twam Asi
EXTD=
EXTT0=
EXTT1=
EXTT2=
EXTT3=
EXTT4=
EXTT5=
EXTT6=
EXTT7=
EXTT8=
EXTT9=
EXTT10=
EXTT11=
PLAYORDER=
